<svg xmlns="http://www.w3.org/2000/svg" xmlns:xlink="http://www.w3.org/1999/xlink"><symbol id="checkmark" viewBox="0 0 24 24"><path d="M20 6 9 17l-5-5" fill="none" stroke="currentColor" stroke-width="3" stroke-linecap="round" stroke-linejoin="round"/></symbol><use xlink:href="#checkmark" width="24" height="24"/><view id="checkmark-view" viewBox="0 0 24 24"/><symbol id="hide" viewBox="0 0 24 24"><path d="M17.94 17.94A10.07 10.07 0 0 1 12 20c-7 0-11-8-11-8a18.45 18.45 0 0 1 5.06-5.94M9.9 4.24A9.12 9.12 0 0 1 12 4c7 0 11 8 11 8a18.5 18.5 0 0 1-2.16 3.19m-6.72-1.07a3 3 0 1 1-4.24-4.24M1 1l22 22" fill="none" stroke="currentColor" stroke-width="3" stroke-linecap="round" stroke-linejoin="round"/></symbol><use xlink:href="#hide" y="24" width="24" height="24"/><view id="hide-view" viewBox="0 24 24 24"/><symbol id="remove" viewBox="0 0 24 24"><path d="M20 4 4 20M4 4l16 16" fill="none" stroke="currentColor" stroke-width="3" stroke-linecap="round" stroke-linejoin="round"/></symbol><use xlink:href="#remove" y="48" width="24" height="24"/><view id="remove-view" viewBox="0 48 24 24"/><symbol id="show" viewBox="0 0 24 24"><g fill="none" stroke="currentColor" stroke-width="3" stroke-linecap="round" stroke-linejoin="round"><path d="M1 12s4-8 11-8 11 8 11 8-4 8-11 8-11-8-11-8z"/><circle cx="12" cy="12" r="3"/></g></symbol><use xlink:href="#show" y="72" width="24" height="24"/><view id="show-view" viewBox="0 72 24 24"/><symbol id="trash" viewBox="0 0 24 24"><path d="M3 6h18m-2 0v14a2 2 0 0 1-2 2H7a2 2 0 0 1-2-2V6m3 0V4a2 2 0 0 1 2-2h4a2 2 0 0 1 2 2v2m-6 5v6m4-6v6" fill="none" stroke="currentColor" stroke-width="3" stroke-linecap="round" stroke-linejoin="round"/></symbol><use xlink:href="#trash" y="96" width="24" height="24"/><view id="trash-view" viewBox="0 96 24 24"/><symbol id="asterisk" viewBox="0 0 24 24"><path fill="currentColor" d="M2.04 11.869a1.973 1.973 0 0 1-1.39-2.53l.388-1.2a1.976 1.976 0 0 1 2.564-1.254c2.867 1.067 5.02 2.008 6.454 2.826-.31-2.963-.521-5.3-.633-7.013C9.35 1.584 10.245.671 11.36.671h1.172c1.129 0 2.036.933 1.96 2.06-.135 1.991-.378 4.307-.734 6.944 1.993-1.004 4.214-1.947 6.668-2.83 1.044-.376 2.182.202 2.524 1.258l.437 1.35c.338 1.045-.23 2.173-1.287 2.477a43.855 43.855 0 0 1-7.143 1.447c1.215 1.057 2.841 2.795 4.88 5.213a1.978 1.978 0 0 1-.38 2.888l-1.005.713c-.89.63-2.124.432-2.736-.472-1.14-1.684-2.421-3.75-3.843-6.2-1.316 2.507-2.515 4.58-3.596 6.212-.6.906-1.828 1.09-2.71.454l-.98-.707a1.986 1.986 0 0 1-.376-2.877c2.115-2.555 3.676-4.296 4.683-5.224-2.375-.459-4.66-.963-6.854-1.508Z"/></symbol><use xlink:href="#asterisk" y="120" width="24" height="24"/><view id="asterisk-view" viewBox="0 120 24 24"/><symbol id="checked" viewBox="0 0 24 24"><path fill="currentColor" d="m5.692 10.644 3.58 3.758 9.036-9.489 2.226 2.34L9.272 19.088l-5.806-6.103 2.226-2.34Z"/></symbol><use xlink:href="#checked" y="144" width="24" height="24"/><view id="checked-view" viewBox="0 144 24 24"/><symbol id="add" viewBox="0 0 24 24"><path d="M12 4v16m-8-8h16" fill="none" stroke="currentColor" stroke-width="2.25" stroke-linecap="round" stroke-linejoin="round"/></symbol><use xlink:href="#add" y="168" width="24" height="24"/><view id="add-view" viewBox="0 168 24 24"/><symbol id="calendar" viewBox="0 0 24 24"><g fill="none" stroke="currentColor" stroke-width="2.25" stroke-linecap="round" stroke-linejoin="round"><rect x="3" y="4" width="18" height="18" rx="2" ry="2"/><path d="M16 2v4M8 2v4m-5 4h18"/></g></symbol><use xlink:href="#calendar" y="192" width="24" height="24"/><view id="calendar-view" viewBox="0 192 24 24"/><symbol id="circle" viewBox="0 0 24 24"><circle cx="12" cy="12" r="10" fill="none" stroke="currentColor" stroke-width="2.25" stroke-linecap="round" stroke-linejoin="round"/></symbol><use xlink:href="#circle" y="216" width="24" height="24"/><view id="circle-view" viewBox="0 216 24 24"/><symbol id="close" viewBox="0 0 24 24"><path d="M20 4 4 20M4 4l16 16" fill="none" stroke="currentColor" stroke-width="2.25" stroke-linecap="round" stroke-linejoin="round"/></symbol><use xlink:href="#close" y="240" width="24" height="24"/><view id="close-view" viewBox="0 240 24 24"/><symbol id="drop" viewBox="0 0 24 24"><path d="m4 8 8 8 8-8" fill="none" stroke="currentColor" stroke-width="3" stroke-linecap="round" stroke-linejoin="round"/></symbol><use xlink:href="#drop" y="264" width="24" height="24"/><view id="drop-view" viewBox="0 264 24 24"/><symbol id="drupal" viewBox="0 0 24 24"><path d="M15.792 5.064C14.088 3.408 12.504 1.824 12.024 0c-.48 1.824-2.064 3.408-3.768 5.064-2.496 2.496-5.352 5.352-5.352 9.648-.144 5.016 3.888 9.192 8.904 9.288 5.016.096 9.216-3.888 9.288-8.904v-.384c.048-4.296-2.808-7.152-5.304-9.648ZM7.56 15.528a5.498 5.498 0 0 0-.696 1.128c-.048.048-.096.12-.168.12h-.048c-.216 0-.432-.384-.432-.384-.048-.096-.12-.216-.168-.312L6 15.984c-.552-1.2-.096-2.904-.096-2.904.216-.816.6-1.632 1.08-2.328.312-.432.648-.864.984-1.296l.432.432 2.04 2.064c.096.096.096.216 0 .312L8.328 14.64l-.768.888Zm4.56 5.952c-1.728 0-3.168-1.416-3.12-3.168 0-.768.312-1.512.768-2.064.648-.768 1.464-1.56 2.376-2.592 1.032 1.128 1.728 1.848 2.376 2.736.048.048.096.12.12.216.336.528.552 1.128.552 1.776.072 1.728-1.344 3.096-3.072 3.096Zm5.904-5.016a.497.497 0 0 1-.312.264h-.048a.913.913 0 0 1-.312-.216c-.552-.816-1.176-1.608-1.848-2.28l-.816-.864-2.76-2.856a35.757 35.757 0 0 1-1.632-1.68c0-.048-.048-.048-.048-.048a1.218 1.218 0 0 1-.216-.432v-.096c-.096-.48.096-.96.432-1.296.528-.528 1.08-1.08 1.608-1.632.552.6 1.176 1.2 1.776 1.824 1.2 1.128 2.28 2.376 3.288 3.72.816 1.176 1.248 2.496 1.248 3.936-.096.504-.168 1.104-.36 1.656Z"/></symbol><use xlink:href="#drupal" y="288" width="24" height="24"/><view id="drupal-view" viewBox="0 288 24 24"/><symbol id="gin" viewBox="0 0 24 24"><path d="M12 4.92c.6.696 1.272 1.344 1.92 1.992 2.4 2.4 4.56 4.56 4.56 7.776v.408c-.096 3.528-3 6.384-6.528 6.384h-.12c-1.728-.048-3.384-.744-4.56-1.992-1.176-1.296-1.824-2.952-1.776-4.728v-.048c0-3.216 2.256-5.4 4.56-7.776A49.835 49.835 0 0 0 12 4.92ZM12 0c-.48 1.824-2.088 3.432-3.792 5.04-2.472 2.52-5.328 5.4-5.328 9.648-.12 5.04 3.912 9.216 8.904 9.312H12c4.92 0 9-3.96 9.12-8.904v-.384c0-4.296-2.88-7.128-5.352-9.648C14.088 3.432 12.48 1.824 12 0Z"/></symbol><use xlink:href="#gin" y="312" width="24" height="24"/><view id="gin-view" viewBox="0 312 24 24"/><symbol id="handle" viewBox="0 0 24 24"><path d="m8 20 8-8-8-8" fill="none" stroke="currentColor" stroke-width="3" stroke-linecap="round" stroke-linejoin="round"/></symbol><use xlink:href="#handle" y="336" width="24" height="24"/><view id="handle-view" viewBox="0 336 24 24"/><symbol id="more" viewBox="0 0 24 24"><path d="M12 13a1 1 0 1 0 0-2 1 1 0 0 0 0 2Zm0-9a1 1 0 1 0 0-2 1 1 0 0 0 0 2Zm0 18a1 1 0 1 0 0-2 1 1 0 0 0 0 2Z" fill="none" stroke="currentColor" stroke-width="2.25" stroke-linecap="round" stroke-linejoin="round"/></symbol><use xlink:href="#more" y="360" width="24" height="24"/><view id="more-view" viewBox="0 360 24 24"/><symbol id="sidebar" viewBox="0 0 24 24"><g fill="none" stroke="currentColor" stroke-width="2" stroke-linecap="round" stroke-linejoin="round"><rect x="3" y="3" width="18" height="18" rx="2" ry="2"/><path d="M14 3v18m4-12.25h2m-2 6h2"/></g></symbol><use xlink:href="#sidebar" y="384" width="24" height="24"/><view id="sidebar-view" viewBox="0 384 24 24"/><symbol id="tool" viewBox="0 0 24 24"><path d="M14.7 6.3a1 1 0 0 0 0 1.4l1.6 1.6a1 1 0 0 0 1.4 0l3.77-3.77a6 6 0 0 1-7.94 7.94l-6.91 6.91a2.12 2.12 0 0 1-3-3l6.91-6.91a6 6 0 0 1 7.94-7.94l-3.76 3.76z" fill="none" stroke="currentColor" stroke-width="2.25" stroke-linecap="round" stroke-linejoin="round"/></symbol><use xlink:href="#tool" y="408" width="24" height="24"/><view id="tool-view" viewBox="0 408 24 24"/><symbol id="grid" viewBox="0 0 24 24"><path d="M3 3h7v7H3zm11 0h7v7h-7zm0 11h7v7h-7zM3 14h7v7H3z" fill="none" stroke="currentColor" stroke-width="3" stroke-linecap="round" stroke-linejoin="round"/></symbol><use xlink:href="#grid" y="432" width="24" height="24"/><view id="grid-view" viewBox="0 432 24 24"/><symbol id="list" viewBox="0 0 24 24"><path d="M8 6h13M8 12h13M8 18h13M3 6h.01M3 12h.01M3 18h.01" fill="none" stroke="currentColor" stroke-width="3" stroke-linecap="round" stroke-linejoin="round"/></symbol><use xlink:href="#list" y="456" width="24" height="24"/><view id="list-view" viewBox="0 456 24 24"/><symbol id="media-edit" viewBox="0 0 24 24"><path d="M17 3a2.828 2.828 0 1 1 4 4L7.5 20.5 2 22l1.5-5.5L17 3z" fill="none" stroke="currentColor" stroke-width="3" stroke-linecap="round" stroke-linejoin="round"/></symbol><use xlink:href="#media-edit" y="480" width="24" height="24"/><view id="media-edit-view" viewBox="0 480 24 24"/><symbol id="media-remove" viewBox="0 0 24 24"><path d="M20 4 4 20M4 4l16 16" fill="none" stroke="currentColor" stroke-width="3" stroke-linecap="round" stroke-linejoin="round"/></symbol><use xlink:href="#media-remove" y="504" width="24" height="24"/><view id="media-remove-view" viewBox="0 504 24 24"/><symbol id="error" viewBox="0 0 24 24"><g fill="none" stroke="currentColor" stroke-width="2.25" stroke-linecap="round" stroke-linejoin="round"><circle cx="12" cy="12" r="10"/><path d="m4.93 4.93 14.14 14.14"/></g></symbol><use xlink:href="#error" y="528" width="24" height="24"/><view id="error-view" viewBox="0 528 24 24"/><symbol id="info" viewBox="0 0 24 24"><path d="M21 15a2 2 0 0 1-2 2H7l-4 4V5a2 2 0 0 1 2-2h14a2 2 0 0 1 2 2z" fill="none" stroke="currentColor" stroke-width="2.25" stroke-linecap="round" stroke-linejoin="round"/></symbol><use xlink:href="#info" y="552" width="24" height="24"/><view id="info-view" viewBox="0 552 24 24"/><symbol id="question" viewBox="0 0 24 24"><g fill="none" stroke="currentColor" stroke-width="2.25" stroke-linecap="round" stroke-linejoin="round"><circle cx="12" cy="12" r="10"/><path d="M9.09 9a3 3 0 0 1 5.83 1c0 2-3 3-3 3m.08 4h.01"/></g></symbol><use xlink:href="#question" y="576" width="24" height="24"/><view id="question-view" viewBox="0 576 24 24"/><symbol id="status" viewBox="0 0 24 24"><g fill="none" stroke="currentColor" stroke-width="2.25" stroke-linecap="round" stroke-linejoin="round"><path d="M22 11.08V12a10 10 0 1 1-5.93-9.14"/><path d="M22 4 12 14.01l-3-3"/></g></symbol><use xlink:href="#status" y="600" width="24" height="24"/><view id="status-view" viewBox="0 600 24 24"/><symbol id="warning" viewBox="0 0 24 24"><path d="M7.86 2h8.28L22 7.86v8.28L16.14 22H7.86L2 16.14V7.86L7.86 2zM12 8v4m0 4h.01" fill="none" stroke="currentColor" stroke-width="2.25" stroke-linecap="round" stroke-linejoin="round"/></symbol><use xlink:href="#warning" y="624" width="24" height="24"/><view id="warning-view" viewBox="0 624 24 24"/><symbol id="first" viewBox="0 0 24 24"><path d="m11 17-5-5 5-5m7 10-5-5 5-5" fill="none" stroke="currentColor" stroke-width="2.25" stroke-linecap="round" stroke-linejoin="round"/></symbol><use xlink:href="#first" y="648" width="24" height="24"/><view id="first-view" viewBox="0 648 24 24"/><symbol id="last" viewBox="0 0 24 24"><path d="m13 17 5-5-5-5M6 17l5-5-5-5" fill="none" stroke="currentColor" stroke-width="2.25" stroke-linecap="round" stroke-linejoin="round"/></symbol><use xlink:href="#last" y="672" width="24" height="24"/><view id="last-view" viewBox="0 672 24 24"/><symbol id="next" viewBox="0 0 24 24"><path d="m9 18 6-6-6-6" fill="none" stroke="currentColor" stroke-width="2.25" stroke-linecap="round" stroke-linejoin="round"/></symbol><use xlink:href="#next" y="696" width="24" height="24"/><view id="next-view" viewBox="0 696 24 24"/><symbol id="prev" viewBox="0 0 24 24"><path d="m15 18-6-6 6-6" fill="none" stroke="currentColor" stroke-width="2.25" stroke-linecap="round" stroke-linejoin="round"/></symbol><use xlink:href="#prev" y="720" width="24" height="24"/><view id="prev-view" viewBox="0 720 24 24"/><symbol id="clock" viewBox="0 0 24 24"><g fill="none" stroke="currentColor" stroke-width="2.25" stroke-linecap="round" stroke-linejoin="round"><circle cx="12" cy="12" r="10"/><path d="M12 6v6l4 2"/></g></symbol><use xlink:href="#clock" y="744" width="24" height="24"/><view id="clock-view" viewBox="0 744 24 24"/><symbol id="database" viewBox="0 0 24 24"><g fill="none" stroke="currentColor" stroke-width="2.25" stroke-linecap="round" stroke-linejoin="round"><ellipse cx="12" cy="5" rx="9" ry="3"/><path d="M21 12c0 1.66-4 3-9 3s-9-1.34-9-3"/><path d="M3 5v14c0 1.66 4 3 9 3s9-1.34 9-3V5"/></g></symbol><use xlink:href="#database" y="768" width="24" height="24"/><view id="database-view" viewBox="0 768 24 24"/><symbol id="php" viewBox="0 0 24 24"><g fill="none" stroke="currentColor" stroke-width="2.25" stroke-linecap="round" stroke-linejoin="round"><path d="M13 2H6a2 2 0 0 0-2 2v16a2 2 0 0 0 2 2h12a2 2 0 0 0 2-2V9z"/><path d="M13 2v7h7"/></g></symbol><use xlink:href="#php" y="792" width="24" height="24"/><view id="php-view" viewBox="0 792 24 24"/><symbol id="server" viewBox="0 0 24 24"><g fill="none" stroke="currentColor" stroke-width="2.25" stroke-linecap="round" stroke-linejoin="round"><rect x="2" y="2" width="20" height="8" rx="2" ry="2"/><rect x="2" y="14" width="20" height="8" rx="2" ry="2"/><path d="M6 6h.01M6 18h.01"/></g></symbol><use xlink:href="#server" y="816" width="24" height="24"/><view id="server-view" viewBox="0 816 24 24"/><symbol id="drag-dots" viewBox="0 0 24 24"><path d="M7 13a1 1 0 1 0 0-2 1 1 0 0 0 0 2Zm0-9a1 1 0 1 0 0-2 1 1 0 0 0 0 2Zm0 18a1 1 0 1 0 0-2 1 1 0 0 0 0 2Zm9-9a1 1 0 1 0 0-2 1 1 0 0 0 0 2Zm0-9a1 1 0 1 0 0-2 1 1 0 0 0 0 2Zm0 18a1 1 0 1 0 0-2 1 1 0 0 0 0 2Z" fill="none" stroke="currentColor" stroke-width="2.25" stroke-linecap="round" stroke-linejoin="round"/></symbol><use xlink:href="#drag-dots" y="840" width="24" height="24"/><view id="drag-dots-view" viewBox="0 840 24 24"/><symbol id="drag" viewBox="0 0 24 24"><path d="m5 9-3 3 3 3M9 5l3-3 3 3m0 14-3 3-3-3M19 9l3 3-3 3M2 12h20M12 2v20" fill="none" stroke="currentColor" stroke-width="2.25" stroke-linecap="round" stroke-linejoin="round"/></symbol><use xlink:href="#drag" y="864" width="24" height="24"/><view id="drag-view" viewBox="0 864 24 24"/><symbol id="sort-asc" viewBox="0 0 24 24"><path d="M12 21V3m-7 7 7-7 7 7" fill="none" stroke="currentColor" stroke-width="2.25" stroke-linecap="round" stroke-linejoin="round"/></symbol><use xlink:href="#sort-asc" y="888" width="24" height="24"/><view id="sort-asc-view" viewBox="0 888 24 24"/><symbol id="sort-desc" viewBox="0 0 24 24"><path d="M12 3v18m7-7-7 7-7-7" fill="none" stroke="currentColor" stroke-width="2.25" stroke-linecap="round" stroke-linejoin="round"/></symbol><use xlink:href="#sort-desc" y="912" width="24" height="24"/><view id="sort-desc-view" viewBox="0 912 24 24"/><symbol id="sort" viewBox="0 0 24 24"><path d="M3 12h14M3 6h18M3 18h10" fill="none" stroke="currentColor" stroke-width="2.25" stroke-linecap="round" stroke-linejoin="round"/></symbol><use xlink:href="#sort" y="936" width="24" height="24"/><view id="sort-view" viewBox="0 936 24 24"/><symbol id="backtosite" viewBox="0 0 24 24"><g fill="none" stroke="currentColor" stroke-width="2.25" stroke-linecap="round" stroke-linejoin="round"><path d="M9 14 4 9l5-5"/><path d="M20 18v-5a4 4 0 0 0-4-4H4"/></g></symbol><use xlink:href="#backtosite" y="960" width="24" height="24"/><view id="backtosite-view" viewBox="0 960 24 24"/><symbol id="devel" viewBox="0 0 24 24"><path d="m16 18 6-6-6-6M8 6l-6 6 6 6" fill="none" stroke="currentColor" stroke-width="2.25" stroke-linecap="round" stroke-linejoin="round"/></symbol><use xlink:href="#devel" y="984" width="24" height="24"/><view id="devel-view" viewBox="0 984 24 24"/><symbol id="rebuild-cache" viewBox="0 0 24 24"><g fill="none" stroke="currentColor" stroke-width="2.25" stroke-linecap="round" stroke-linejoin="round"><path d="M23 4v6h-6"/><path d="M20.49 15a9 9 0 1 1-2.12-9.36L23 10"/></g></symbol><use xlink:href="#rebuild-cache" y="1008" width="24" height="24"/><view id="rebuild-cache-view" viewBox="0 1008 24 24"/><symbol id="responsive-preview" viewBox="0 0 24 24"><g fill="none" stroke="currentColor" stroke-width="2.25" stroke-linecap="round" stroke-linejoin="round"><rect x="5" y="2" width="14" height="20" rx="2" ry="2"/><path d="M12 18h.01"/></g></symbol><use xlink:href="#responsive-preview" y="1032" width="24" height="24"/><view id="responsive-preview-view" viewBox="0 1032 24 24"/><symbol id="search" viewBox="0 0 24 24"><path d="M10 17a7 7 0 1 0 0-14 7 7 0 0 0 0 14Zm11 4-4.35-4.35" fill="none" stroke="currentColor" stroke-width="2.25" stroke-linecap="round" stroke-linejoin="round"/></symbol><use xlink:href="#search" y="1056" width="24" height="24"/><view id="search-view" viewBox="0 1056 24 24"/><symbol id="shortcut-filled" viewBox="0 0 24 24"><path d="m12 2 3.09 6.26L22 9.27l-5 4.87 1.18 6.88L12 17.77l-6.18 3.25L7 14.14 2 9.27l6.91-1.01L12 2z" fill="currentColor" fill-opacity=".2" stroke="currentColor" stroke-width="2.25" stroke-linecap="round" stroke-linejoin="round"/></symbol><use xlink:href="#shortcut-filled" y="1080" width="24" height="24"/><view id="shortcut-filled-view" viewBox="0 1080 24 24"/><symbol id="shortcut" viewBox="0 0 24 24"><path d="m12 2 3.09 6.26L22 9.27l-5 4.87 1.18 6.88L12 17.77l-6.18 3.25L7 14.14 2 9.27l6.91-1.01L12 2z" fill="none" stroke="currentColor" stroke-width="2.25" stroke-linecap="round" stroke-linejoin="round"/></symbol><use xlink:href="#shortcut" y="1104" width="24" height="24"/><view id="shortcut-view" viewBox="0 1104 24 24"/><symbol id="user" viewBox="0 0 24 24"><g fill="none" stroke="currentColor" stroke-width="2.25" stroke-linecap="round" stroke-linejoin="round"><path d="M12 13a4 4 0 1 0 0-8 4 4 0 0 0 0 8Zm-6.75 7v-.667C5.25 17 9.314 16 12.25 16s7 1 7 3.333V20"/><path d="M23 12c0 6.075-4.925 11-11 11S1 18.075 1 12 5.925 1 12 1s11 4.925 11 11Z"/></g></symbol><use xlink:href="#user" y="1128" width="24" height="24"/><view id="user-view" viewBox="0 1128 24 24"/><symbol id="appearance" viewBox="0 0 24 24"><path d="M0 0h24v24H0z" fill="none"/><path d="M12 22C6.49 22 2 17.51 2 12S6.49 2 12 2s10 4.04 10 9c0 3.31-2.69 6-6 6h-1.77c-.28 0-.5.22-.5.5 0 .12.05.23.13.33.41.47.64 1.06.64 1.67A2.5 2.5 0 0 1 12 22zm0-18c-4.41 0-8 3.59-8 8s3.59 8 8 8c.28 0 .5-.22.5-.5a.54.54 0 0 0-.14-.35c-.41-.46-.63-1.05-.63-1.65a2.5 2.5 0 0 1 2.5-2.5H16c2.21 0 4-1.79 4-4 0-3.86-3.59-7-8-7z"/><circle cx="6.5" cy="11.5" r="1.5"/><circle cx="9.5" cy="7.5" r="1.5"/><circle cx="14.5" cy="7.5" r="1.5"/><circle cx="17.5" cy="11.5" r="1.5"/></symbol><use xlink:href="#appearance" y="1152" width="24" height="24"/><view id="appearance-view" viewBox="0 1152 24 24"/><symbol id="bat" viewBox="0 0 24 24"><g fill="none" stroke="currentColor" stroke-width="2.25" stroke-linecap="round" stroke-linejoin="round"><rect x="3" y="4" width="18" height="18" rx="2" ry="2"/><path d="M16 2v4M8 2v4m-5 4h18"/></g></symbol><use xlink:href="#bat" y="1176" width="24" height="24"/><view id="bat-view" viewBox="0 1176 24 24"/><symbol id="commerce" viewBox="0 0 24 24"><g fill="none" stroke="currentColor" stroke-width="2.25" stroke-linecap="round" stroke-linejoin="round"><circle cx="9" cy="21" r="1"/><circle cx="20" cy="21" r="1"/><path d="M1 1h4l2.68 13.39a2 2 0 0 0 2 1.61h9.72a2 2 0 0 0 2-1.61L23 6H6"/></g></symbol><use xlink:href="#commerce" y="1200" width="24" height="24"/><view id="commerce-view" viewBox="0 1200 24 24"/><symbol id="config" viewBox="0 0 24 24"><g fill="none" stroke="currentColor" stroke-width="2.25" stroke-linecap="round" stroke-linejoin="round"><circle fill="currentColor" fill-opacity=".15" cx="12" cy="12" r="3"/><path d="M19.4 15a1.65 1.65 0 0 0 .33 1.82l.06.06a2 2 0 0 1 0 2.83 2 2 0 0 1-2.83 0l-.06-.06a1.65 1.65 0 0 0-1.82-.33 1.65 1.65 0 0 0-1 1.51V21a2 2 0 0 1-2 2 2 2 0 0 1-2-2v-.09A1.65 1.65 0 0 0 9 19.4a1.65 1.65 0 0 0-1.82.33l-.06.06a2 2 0 0 1-2.83 0 2 2 0 0 1 0-2.83l.06-.06a1.65 1.65 0 0 0 .33-1.82 1.65 1.65 0 0 0-1.51-1H3a2 2 0 0 1-2-2 2 2 0 0 1 2-2h.09A1.65 1.65 0 0 0 4.6 9a1.65 1.65 0 0 0-.33-1.82l-.06-.06a2 2 0 0 1 0-2.83 2 2 0 0 1 2.83 0l.06.06a1.65 1.65 0 0 0 1.82.33H9a1.65 1.65 0 0 0 1-1.51V3a2 2 0 0 1 2-2 2 2 0 0 1 2 2v.09a1.65 1.65 0 0 0 1 1.51 1.65 1.65 0 0 0 1.82-.33l.06-.06a2 2 0 0 1 2.83 0 2 2 0 0 1 0 2.83l-.06.06a1.65 1.65 0 0 0-.33 1.82V9a1.65 1.65 0 0 0 1.51 1H21a2 2 0 0 1 2 2 2 2 0 0 1-2 2h-.09a1.65 1.65 0 0 0-1.51 1z"/></g></symbol><use xlink:href="#config" y="1224" width="24" height="24"/><view id="config-view" viewBox="0 1224 24 24"/><symbol id="content" viewBox="0 0 24 24"><path fill="none" d="M0 0h24v24H0z"/><path d="M20 2H4c-1 0-2 .9-2 2v3.01c0 .72.43 1.34 1 1.69V20c0 1.1 1.1 2 2 2h14c.9 0 2-.9 2-2V8.7c.57-.35 1-.97 1-1.69V4c0-1.1-1-2-2-2zm-1 18H5V9h14v11zm1-13H4V4h16v3z"/><path d="M9 12h6v2H9z"/></symbol><use xlink:href="#content" y="1248" width="24" height="24"/><view id="content-view" viewBox="0 1248 24 24"/><symbol id="dashboard" viewBox="0 0 24 24"><path d="M0 0h24v24H0V0z" fill="none"/><path d="M19 5v2h-4V5h4M9 5v6H5V5h4m10 8v6h-4v-6h4M9 17v2H5v-2h4M21 3h-8v6h8V3zM11 3H3v10h8V3zm10 8h-8v10h8V11zm-10 4H3v6h8v-6z"/></symbol><use xlink:href="#dashboard" y="1272" width="24" height="24"/><view id="dashboard-view" viewBox="0 1272 24 24"/><symbol id="edit" viewBox="0 0 24 24"><path d="M17 3a2.828 2.828 0 1 1 4 4L7.5 20.5 2 22l1.5-5.5L17 3z" fill="none" stroke="currentColor" stroke-width="2.25" stroke-linecap="round" stroke-linejoin="round"/></symbol><use xlink:href="#edit" y="1296" width="24" height="24"/><view id="edit-view" viewBox="0 1296 24 24"/><symbol id="extend" viewBox="0 0 24 24"><path d="M14.75 10h7.5c.5 0 .75-.23.75-.692V1.692C23 1.31 22.664 1 22.25 1h-7.5c-.414 0-.75.31-.75.692v7.616c0 .382.336.692.75.692ZM1 14h9V5.692C10 5.31 9.664 5 9.25 5h-7.5c-.414 0-.75.31-.75.692V14Zm.75 9H10v-9H1v8.308c0 .382.336.692.75.692ZM10 23h8.25c.5 0 .75-.23.75-.692v-7.616c0-.382-.336-.692-.75-.692H10v9Z" fill="none" stroke="#000" stroke-width="2" stroke-linecap="round" stroke-linejoin="round"/><path fill="currentColor" fill-opacity=".1" d="M1.75 23H10v-9H1v8.308c0 .382.336.692.75.692Z" stroke="#000" stroke-width="2" stroke-linecap="round" stroke-linejoin="round"/></symbol><use xlink:href="#extend" y="1320" width="24" height="24"/><view id="extend-view" viewBox="0 1320 24 24"/><symbol id="fallback" viewBox="0 0 24 24"><rect x="3" y="3" width="18" height="18" rx="2" ry="2" fill="none" stroke="currentColor" stroke-width="2.25" stroke-linecap="round" stroke-linejoin="round"/></symbol><use xlink:href="#fallback" y="1344" width="24" height="24"/><view id="fallback-view" viewBox="0 1344 24 24"/><symbol id="functionality" viewBox="0 0 24 24"><path d="M0 0h24v24H0V0z" fill="none"/><path d="M10.5 4.5c.28 0 .5.22.5.5v2h6v6h2c.28 0 .5.22.5.5s-.22.5-.5.5h-2v6h-2.12c-.68-1.75-2.39-3-4.38-3s-3.7 1.25-4.38 3H4v-2.12c1.75-.68 3-2.39 3-4.38 0-1.99-1.24-3.7-2.99-4.38L4 7h6V5c0-.28.22-.5.5-.5m0-2A2.5 2.5 0 0 0 8 5H4c-1.1 0-1.99.9-1.99 2v3.8h.29c1.49 0 2.7 1.21 2.7 2.7s-1.21 2.7-2.7 2.7H2V20c0 1.1.9 2 2 2h3.8v-.3c0-1.49 1.21-2.7 2.7-2.7s2.7 1.21 2.7 2.7v.3H17c1.1 0 2-.9 2-2v-4a2.5 2.5 0 0 0 0-5V7c0-1.1-.9-2-2-2h-4a2.5 2.5 0 0 0-2.5-2.5z"/></symbol><use xlink:href="#functionality" y="1368" width="24" height="24"/><view id="functionality-view" viewBox="0 1368 24 24"/><symbol id="group" viewBox="0 0 24 24"><g fill="none" stroke="currentColor" stroke-width="2.25" stroke-linecap="round" stroke-linejoin="round"><path d="M4 19.5A2.5 2.5 0 0 1 6.5 17H20M4 14.5A2.5 2.5 0 0 1 6.5 12H20"/><path d="M6.5 2H20v20H6.5A2.5 2.5 0 0 1 4 19.5v-15A2.5 2.5 0 0 1 6.5 2v0Z"/></g></symbol><use xlink:href="#group" y="1392" width="24" height="24"/><view id="group-view" viewBox="0 1392 24 24"/><symbol id="hamburger" viewBox="0 0 24 24"><path d="M3 12h18M3 6h18M3 18h18" fill="none" stroke="currentColor" stroke-width="2.25" stroke-linecap="round" stroke-linejoin="round"/></symbol><use xlink:href="#hamburger" y="1416" width="24" height="24"/><view id="hamburger-view" viewBox="0 1416 24 24"/><symbol id="help" viewBox="0 0 24 24"><path d="M0 0h24v24H0V0z" fill="none"/><path d="M11 18h2v-2h-2v2zm1-16C6.48 2 2 6.48 2 12s4.48 10 10 10 10-4.48 10-10S17.52 2 12 2zm0 18c-4.41 0-8-3.59-8-8s3.59-8 8-8 8 3.59 8 8-3.59 8-8 8zm0-14c-2.21 0-4 1.79-4 4h2c0-1.1.9-2 2-2s2 .9 2 2c0 2-3 1.75-3 5h2c0-2.25 3-2.5 3-5 0-2.21-1.79-4-4-4z"/></symbol><use xlink:href="#help" y="1440" width="24" height="24"/><view id="help-view" viewBox="0 1440 24 24"/><symbol id="info" viewBox="0 0 24 24"><path d="M0 0h24v24H0V0z" fill="none"/><path d="M11 7h2v2h-2zm0 4h2v6h-2zm1-9C6.48 2 2 6.48 2 12s4.48 10 10 10 10-4.48 10-10S17.52 2 12 2zm0 18c-4.41 0-8-3.59-8-8s3.59-8 8-8 8 3.59 8 8-3.59 8-8 8z"/></symbol><use xlink:href="#info" y="1464" width="24" height="24"/><view id="info-view" viewBox="0 1464 24 24"/><symbol id="local-tasks" viewBox="0 0 24 24"><g fill="none" stroke="currentColor" stroke-width="2.25" stroke-linecap="round" stroke-linejoin="round"><path d="M22 11.08V12a10 10 0 1 1-5.93-9.14"/><path d="M22 4 12 14.01l-3-3"/></g></symbol><use xlink:href="#local-tasks" y="1488" width="24" height="24"/><view id="local-tasks-view" viewBox="0 1488 24 24"/><symbol id="logout" viewBox="0 0 24 24"><path d="M0 0h24v24H0V0z" fill="none"/><path d="m17 8-1.41 1.41L17.17 11H9v2h8.17l-1.58 1.58L17 16l4-4-4-4zM5 5h7V3H5c-1.1 0-2 .9-2 2v14c0 1.1.9 2 2 2h7v-2H5V5z"/></symbol><use xlink:href="#logout" y="1512" width="24" height="24"/><view id="logout-view" viewBox="0 1512 24 24"/><symbol id="nav-toggle-toleft" viewBox="0 0 24 24"><path d="M19 12H5m7 7-7-7 7-7" fill="none" stroke="currentColor" stroke-width="2.25" stroke-linecap="round" stroke-linejoin="round"/></symbol><use xlink:href="#nav-toggle-toleft" y="1536" width="24" height="24"/><view id="nav-toggle-toleft-view" viewBox="0 1536 24 24"/><symbol id="nav-toggle-totop" viewBox="0 0 24 24"><path d="M12 19V5m-7 7 7-7 7 7" fill="none" stroke="currentColor" stroke-width="2.25" stroke-linecap="round" stroke-linejoin="round"/></symbol><use xlink:href="#nav-toggle-totop" y="1560" width="24" height="24"/><view id="nav-toggle-totop-view" viewBox="0 1560 24 24"/><symbol id="people" viewBox="0 0 24 24"><path d="M0 0h24v24H0V0z" fill="none"/><path d="M9 13.75c-2.34 0-7 1.17-7 3.5V19h14v-1.75c0-2.33-4.66-3.5-7-3.5zM4.34 17c.84-.58 2.87-1.25 4.66-1.25s3.82.67 4.66 1.25H4.34zM9 12c1.93 0 3.5-1.57 3.5-3.5S10.93 5 9 5 5.5 6.57 5.5 8.5 7.07 12 9 12zm0-5c.83 0 1.5.67 1.5 1.5S9.83 10 9 10s-1.5-.67-1.5-1.5S8.17 7 9 7zm7.04 6.81c1.16.84 1.96 1.96 1.96 3.44V19h4v-1.75c0-2.02-3.5-3.17-5.96-3.44zM15 12c1.93 0 3.5-1.57 3.5-3.5S16.93 5 15 5c-.54 0-1.04.13-1.5.35.63.89 1 1.98 1 3.15s-.37 2.26-1 3.15c.46.22.96.35 1.5.35z"/></symbol><use xlink:href="#people" y="1584" width="24" height="24"/><view id="people-view" viewBox="0 1584 24 24"/><symbol id="person" viewBox="0 0 24 24"><path d="M0 0h24v24H0V0z" fill="none"/><path d="M12 6c1.1 0 2 .9 2 2s-.9 2-2 2-2-.9-2-2 .9-2 2-2m0 10c2.7 0 5.8 1.29 6 2H6c.23-.72 3.31-2 6-2m0-12C9.79 4 8 5.79 8 8s1.79 4 4 4 4-1.79 4-4-1.79-4-4-4zm0 10c-2.67 0-8 1.34-8 4v2h16v-2c0-2.66-5.33-4-8-4z"/></symbol><use xlink:href="#person" y="1608" width="24" height="24"/><view id="person-view" viewBox="0 1608 24 24"/><symbol id="reports" viewBox="0 0 24 24"><path fill="none" d="M0 0h24v24H0z"/><path d="m17 7-5-4-5 7-4-3v13h18V7h-4zm2 9.95-7-5.45L8 17l-3-2.4V11l2.44 1.83 4.96-6.95L16.3 9H19v7.95z"/></symbol><use xlink:href="#reports" y="1632" width="24" height="24"/><view id="reports-view" viewBox="0 1632 24 24"/><symbol id="settings" viewBox="0 0 24 24"><path d="M0 0h24v24H0V0z" fill="none"/><path d="M19.43 12.98c.04-.32.07-.64.07-.98 0-.34-.03-.66-.07-.98l2.11-1.65c.19-.15.24-.42.12-.64l-2-3.46a.5.5 0 0 0-.61-.22l-2.49 1c-.52-.4-1.08-.73-1.69-.98l-.38-2.65A.488.488 0 0 0 14 2h-4c-.25 0-.46.18-.49.42l-.38 2.65c-.61.25-1.17.59-1.69.98l-2.49-1a.566.566 0 0 0-.18-.03c-.17 0-.34.09-.43.25l-2 3.46c-.13.22-.07.49.12.64l2.11 1.65c-.04.32-.07.65-.07.98 0 .33.03.66.07.98l-2.11 1.65c-.19.15-.24.42-.12.64l2 3.46a.5.5 0 0 0 .61.22l2.49-1c.52.4 1.08.73 1.69.98l.38 2.65c.03.24.24.42.49.42h4c.25 0 .46-.18.49-.42l.38-2.65c.61-.25 1.17-.59 1.69-.98l2.49 1c.06.02.12.03.18.03.17 0 .34-.09.43-.25l2-3.46c.12-.22.07-.49-.12-.64l-2.11-1.65zm-1.98-1.71c.04.31.05.52.05.73 0 .21-.02.43-.05.73l-.14 1.13.89.7 1.08.84-.7 1.21-1.27-.51-1.04-.42-.9.68c-.43.32-.84.56-1.25.73l-1.06.43-.16 1.13-.2 1.35h-1.4l-.19-1.35-.16-1.13-1.06-.43c-.43-.18-.83-.41-1.23-.71l-.91-.7-1.06.43-1.27.51-.7-1.21 1.08-.84.89-.7-.14-1.13c-.03-.31-.05-.54-.05-.74s.02-.43.05-.73l.14-1.13-.89-.7-1.08-.84.7-1.21 1.27.51 1.04.42.9-.68c.43-.32.84-.56 1.25-.73l1.06-.43.16-1.13.2-1.35h1.39l.19 1.35.16 1.13 1.06.43c.43.18.83.41 1.23.71l.91.7 1.06-.43 1.27-.51.7 1.21-1.07.85-.89.7.14 1.13zM12 8c-2.21 0-4 1.79-4 4s1.79 4 4 4 4-1.79 4-4-1.79-4-4-4zm0 6c-1.1 0-2-.9-2-2s.9-2 2-2 2 .9 2 2-.9 2-2 2z"/></symbol><use xlink:href="#settings" y="1656" width="24" height="24"/><view id="settings-view" viewBox="0 1656 24 24"/><symbol id="structure" viewBox="0 0 24 24"><path fill="none" d="M0 0h24v24H0z"/><path d="M22 11V3h-7v3H9V3H2v8h7V8h2v10h4v3h7v-8h-7v3h-2V8h2v3h7zM7 9H4V5h3v4zm10 6h3v4h-3v-4zm0-10h3v4h-3V5z"/></symbol><use xlink:href="#structure" y="1680" width="24" height="24"/><view id="structure-view" viewBox="0 1680 24 24"/><symbol id="tmgmt" viewBox="0 0 24 24"><g fill="none" stroke="currentColor" stroke-width="2.25" stroke-linecap="round" stroke-linejoin="round"><circle cx="12" cy="12" r="10"/><path d="M2 12h20M12 2a15.3 15.3 0 0 1 4 10 15.3 15.3 0 0 1-4 10 15.3 15.3 0 0 1-4-10 15.3 15.3 0 0 1 4-10z"/></g></symbol><use xlink:href="#tmgmt" y="1704" width="24" height="24"/><view id="tmgmt-view" viewBox="0 1704 24 24"/><symbol id="useraccount" viewBox="0 0 24 24"><path fill="none" d="M0 0h24v24H0z"/><path d="M12 2C6.48 2 2 6.48 2 12s4.48 10 10 10 10-4.48 10-10S17.52 2 12 2zM7.35 18.5C8.66 17.56 10.26 17 12 17s3.34.56 4.65 1.5c-1.31.94-2.91 1.5-4.65 1.5s-3.34-.56-4.65-1.5zm10.79-1.38a9.947 9.947 0 0 0-12.28 0A7.957 7.957 0 0 1 4 12c0-4.42 3.58-8 8-8s8 3.58 8 8c0 1.95-.7 3.73-1.86 5.12z"/><path d="M12 6c-1.93 0-3.5 1.57-3.5 3.5S10.07 13 12 13s3.5-1.57 3.5-3.5S13.93 6 12 6zm0 5c-.83 0-1.5-.67-1.5-1.5S11.17 8 12 8s1.5.67 1.5 1.5S12.83 11 12 11z"/></symbol><use xlink:href="#useraccount" y="1728" width="24" height="24"/><view id="useraccount-view" viewBox="0 1728 24 24"/><symbol id="webform" viewBox="0 0 24 24"><g fill="none" stroke="currentColor" stroke-width="2.25" stroke-linecap="round" stroke-linejoin="round"><path d="M12 16a4 4 0 1 0 0-8 4 4 0 0 0 0 8Z"/><path d="M16 8v5a3 3 0 0 0 6 0v-1a10 10 0 1 0-3.92 7.94"/></g></symbol><use xlink:href="#webform" y="1752" width="24" height="24"/><view id="webform-view" viewBox="0 1752 24 24"/></svg>